{
	"asset":{
		"generator":"Khronos glTF Blender I/O v4.1.63",
		"version":"2.0"
	},
	"scene":0,
	"scenes":[
		{
			"name":"Scene",
			"nodes":[
				12
			]
		}
	],
	"nodes":[
		{
			"name":"BoxBottom",
			"rotation":[
				0,
				-0.7071066498756409,
				0,
				0.70710688829422
			],
			"scale":[
				0.9558852314949036,
				0.9558852910995483,
				0.9558851718902588
			]
		},
		{
			"name":"BoxTop",
			"rotation":[
				0,
				-0.7052901387214661,
				0,
				0.7089188098907471
			],
			"scale":[
				0.9558852910995483,
				0.9558852910995483,
				0.9558853507041931
			]
		},
		{
			"name":"Laces_L"
		},
		{
			"mesh":0,
			"name":"Shoe_L_MAT_Shoe_L_0"
		},
		{
			"children":[
				3
			],
			"name":"Shoe_L"
		},
		{
			"name":"Sole_L"
		},
		{
			"children":[
				2,
				4,
				5
			],
			"name":"Nike_AJ1_L",
			"rotation":[
				0,
				0.9998196363449097,
				0,
				0.018993636593222618
			],
			"translation":[
				-4.928380966186523,
				11.190140724182129,
				-2.378829002380371
			]
		},
		{
			"name":"Laces_R",
			"rotation":[
				0,
				-0.012146757915616035,
				0,
				0.9999263286590576
			],
			"translation":[
				4.850998401641846,
				11.189095497131348,
				0.4172948896884918
			]
		},
		{
			"name":"Shoe_R",
			"rotation":[
				0,
				-0.012146757915616035,
				0,
				0.9999263286590576
			],
			"translation":[
				4.850998401641846,
				11.189095497131348,
				0.4172948896884918
			]
		},
		{
			"name":"Sole_R",
			"rotation":[
				0,
				-0.012146757915616035,
				0,
				0.9999263286590576
			],
			"translation":[
				4.850998401641846,
				11.189095497131348,
				0.4172948896884918
			]
		},
		{
			"children":[
				7,
				8,
				9
			],
			"name":"Nike_AJ1_R",
			"rotation":[
				0,
				0.05069959908723831,
				0,
				0.9987139701843262
			],
			"translation":[
				0.10931980609893799,
				0,
				0.655918300151825
			]
		},
		{
			"children":[
				0,
				1,
				6,
				10
			],
			"name":"RootNode"
		},
		{
			"children":[
				11
			],
			"name":"fc066c9d184e490a89ee98adaefb8000.fbx",
			"rotation":[
				0.70710688829422,
				0,
				0,
				0.7071066498756409
			],
			"scale":[
				0.009999999776482582,
				0.010000000707805157,
				0.010000000707805157
			]
		}
	],
	"materials":[
		{
			"doubleSided":true,
			"name":"MAT_Shoe_L",
			"normalTexture":{
				"index":0
			},
			"occlusionTexture":{
				"index":1
			},
			"pbrMetallicRoughness":{
				"baseColorTexture":{
					"index":2
				},
				"metallicFactor":0,
				"metallicRoughnessTexture":{
					"index":1
				}
			}
		},
		{
			"doubleSided":true,
			"name":"MAT_Sole_L",
			"normalTexture":{
				"index":3
			},
			"occlusionTexture":{
				"index":4
			},
			"pbrMetallicRoughness":{
				"baseColorTexture":{
					"index":5
				},
				"metallicFactor":0,
				"metallicRoughnessTexture":{
					"index":4
				}
			}
		},
		{
			"doubleSided":true,
			"name":"MAT_Laces_L",
			"normalTexture":{
				"index":6
			},
			"occlusionTexture":{
				"index":7
			},
			"pbrMetallicRoughness":{
				"baseColorTexture":{
					"index":8
				},
				"metallicFactor":0,
				"metallicRoughnessTexture":{
					"index":7
				}
			}
		}
	],
	"meshes":[
		{
			"name":"Shoe_L_MAT_Shoe_L_0",
			"primitives":[
				{
					"attributes":{
						"POSITION":0,
						"NORMAL":1,
						"TEXCOORD_0":2,
						"TEXCOORD_1":3,
						"TEXCOORD_2":4
					},
					"indices":5,
					"material":0
				},
				{
					"attributes":{
						"POSITION":6,
						"NORMAL":7,
						"TEXCOORD_0":8,
						"TEXCOORD_1":9,
						"TEXCOORD_2":10
					},
					"indices":11,
					"material":1
				},
				{
					"attributes":{
						"POSITION":12,
						"NORMAL":13,
						"TEXCOORD_0":14,
						"TEXCOORD_1":15,
						"TEXCOORD_2":16
					},
					"indices":17,
					"material":2
				}
			]
		}
	],
	"textures":[
		{
			"sampler":0,
			"source":0
		},
		{
			"sampler":0,
			"source":1
		},
		{
			"sampler":0,
			"source":2
		},
		{
			"sampler":0,
			"source":3
		},
		{
			"sampler":0,
			"source":4
		},
		{
			"sampler":0,
			"source":5
		},
		{
			"sampler":0,
			"source":6
		},
		{
			"sampler":0,
			"source":7
		},
		{
			"sampler":0,
			"source":8
		}
	],
	"images":[
		{
			"mimeType":"image/png",
			"name":"Image_2",
			"uri":"textures/Image_2.png"
		},
		{
			"mimeType":"image/png",
			"name":"Image_1",
			"uri":"textures/Image_1.png"
		},
		{
			"mimeType":"image/png",
			"name":"Image_0",
			"uri":"textures/Image_0.png"
		},
		{
			"mimeType":"image/png",
			"name":"Image_5",
			"uri":"textures/Image_5.png"
		},
		{
			"mimeType":"image/png",
			"name":"Image_4",
			"uri":"textures/Image_4.png"
		},
		{
			"mimeType":"image/png",
			"name":"Image_3",
			"uri":"textures/Image_3.png"
		},
		{
			"mimeType":"image/png",
			"name":"Image_8",
			"uri":"textures/Image_8.png"
		},
		{
			"mimeType":"image/png",
			"name":"Image_7",
			"uri":"textures/Image_7.png"
		},
		{
			"mimeType":"image/png",
			"name":"Image_6",
			"uri":"textures/Image_6.png"
		}
	],
	"accessors":[
		{
			"bufferView":0,
			"componentType":5126,
			"count":44512,
			"max":[
				1.2264127731323242,
				-0.006221771240234375,
				16.288415908813477
			],
			"min":[
				-9.123103141784668,
				-26.870033264160156,
				0.30214357376098633
			],
			"type":"VEC3"
		},
		{
			"bufferView":1,
			"componentType":5126,
			"count":44512,
			"type":"VEC3"
		},
		{
			"bufferView":2,
			"componentType":5126,
			"count":44512,
			"type":"VEC2"
		},
		{
			"bufferView":3,
			"componentType":5126,
			"count":44512,
			"type":"VEC2"
		},
		{
			"bufferView":4,
			"componentType":5126,
			"count":44512,
			"type":"VEC2"
		},
		{
			"bufferView":5,
			"componentType":5123,
			"count":66768,
			"type":"SCALAR"
		},
		{
			"bufferView":6,
			"componentType":5126,
			"count":1279,
			"max":[
				0.754486083984375,
				-0.5956439971923828,
				3.9580211639404297
			],
			"min":[
				-8.53110122680664,
				-25.763824462890625,
				2.309967041015625
			],
			"type":"VEC3"
		},
		{
			"bufferView":7,
			"componentType":5126,
			"count":1279,
			"type":"VEC3"
		},
		{
			"bufferView":8,
			"componentType":5126,
			"count":1279,
			"type":"VEC2"
		},
		{
			"bufferView":9,
			"componentType":5126,
			"count":1279,
			"type":"VEC2"
		},
		{
			"bufferView":10,
			"componentType":5126,
			"count":1279,
			"type":"VEC2"
		},
		{
			"bufferView":11,
			"componentType":5123,
			"count":2640,
			"type":"SCALAR"
		},
		{
			"bufferView":12,
			"componentType":5126,
			"count":14992,
			"max":[
				0.07921814918518066,
				-9.90636157989502,
				15.297218322753906
			],
			"min":[
				-7.279685020446777,
				-18.852624893188477,
				6.0990095138549805
			],
			"type":"VEC3"
		},
		{
			"bufferView":13,
			"componentType":5126,
			"count":14992,
			"type":"VEC3"
		},
		{
			"bufferView":14,
			"componentType":5126,
			"count":14992,
			"type":"VEC2"
		},
		{
			"bufferView":15,
			"componentType":5126,
			"count":14992,
			"type":"VEC2"
		},
		{
			"bufferView":16,
			"componentType":5126,
			"count":14992,
			"type":"VEC2"
		},
		{
			"bufferView":17,
			"componentType":5123,
			"count":22500,
			"type":"SCALAR"
		}
	],
	"bufferViews":[
		{
			"buffer":0,
			"byteLength":534144,
			"byteOffset":0,
			"target":34962
		},
		{
			"buffer":0,
			"byteLength":534144,
			"byteOffset":534144,
			"target":34962
		},
		{
			"buffer":0,
			"byteLength":356096,
			"byteOffset":1068288,
			"target":34962
		},
		{
			"buffer":0,
			"byteLength":356096,
			"byteOffset":1424384,
			"target":34962
		},
		{
			"buffer":0,
			"byteLength":356096,
			"byteOffset":1780480,
			"target":34962
		},
		{
			"buffer":0,
			"byteLength":133536,
			"byteOffset":2136576,
			"target":34963
		},
		{
			"buffer":0,
			"byteLength":15348,
			"byteOffset":2270112,
			"target":34962
		},
		{
			"buffer":0,
			"byteLength":15348,
			"byteOffset":2285460,
			"target":34962
		},
		{
			"buffer":0,
			"byteLength":10232,
			"byteOffset":2300808,
			"target":34962
		},
		{
			"buffer":0,
			"byteLength":10232,
			"byteOffset":2311040,
			"target":34962
		},
		{
			"buffer":0,
			"byteLength":10232,
			"byteOffset":2321272,
			"target":34962
		},
		{
			"buffer":0,
			"byteLength":5280,
			"byteOffset":2331504,
			"target":34963
		},
		{
			"buffer":0,
			"byteLength":179904,
			"byteOffset":2336784,
			"target":34962
		},
		{
			"buffer":0,
			"byteLength":179904,
			"byteOffset":2516688,
			"target":34962
		},
		{
			"buffer":0,
			"byteLength":119936,
			"byteOffset":2696592,
			"target":34962
		},
		{
			"buffer":0,
			"byteLength":119936,
			"byteOffset":2816528,
			"target":34962
		},
		{
			"buffer":0,
			"byteLength":119936,
			"byteOffset":2936464,
			"target":34962
		},
		{
			"buffer":0,
			"byteLength":45000,
			"byteOffset":3056400,
			"target":34963
		}
	],
	"samplers":[
		{
			"magFilter":9729,
			"minFilter":9987
		}
	],
	"buffers":[
		{
			"byteLength":3101400,
			"uri":"jordan1.bin"
		}
	]
}
