{
	"asset":{
		"generator":"Khronos glTF Blender I/O v4.1.63",
		"version":"2.0"
	},
	"scene":0,
	"scenes":[
		{
			"name":"Scene",
			"nodes":[
				1
			]
		}
	],
	"nodes":[
		{
			"mesh":0,
			"name":"Object_2"
		},
		{
			"children":[
				0
			],
			"name":"xiezi zhujia_Prop_shoe_fin_180612.obj.cleaner.materialmerger.gl"
		}
	],
	"materials":[
		{
			"doubleSided":true,
			"name":"logo07___Default",
			"normalTexture":{
				"index":0
			},
			"pbrMetallicRoughness":{
				"baseColorTexture":{
					"index":1
				},
				"metallicFactor":0,
				"metallicRoughnessTexture":{
					"index":2
				}
			}
		},
		{
			"doubleSided":true,
			"name":"xiezi407___Default",
			"normalTexture":{
				"index":3
			},
			"pbrMetallicRoughness":{
				"baseColorTexture":{
					"index":4
				},
				"metallicFactor":0.589545488357544,
				"metallicRoughnessTexture":{
					"index":5
				}
			}
		}
	],
	"meshes":[
		{
			"name":"Object_0",
			"primitives":[
				{
					"attributes":{
						"POSITION":0,
						"NORMAL":1,
						"TEXCOORD_0":2
					},
					"indices":3,
					"material":0
				},
				{
					"attributes":{
						"POSITION":4,
						"NORMAL":5,
						"TEXCOORD_0":6
					},
					"indices":7,
					"material":1
				}
			]
		}
	],
	"textures":[
		{
			"sampler":0,
			"source":0
		},
		{
			"sampler":0,
			"source":1
		},
		{
			"sampler":0,
			"source":2
		},
		{
			"sampler":0,
			"source":0
		},
		{
			"sampler":0,
			"source":1
		},
		{
			"sampler":0,
			"source":2
		}
	],
	"images":[
		{
			"mimeType":"image/png",
			"name":"logo07___Default_normal",
			"uri":"textures/logo07___Default_normal.png"
		},
		{
			"mimeType":"image/jpeg",
			"name":"logo07___Default_baseColor",
			"uri":"textures/logo07___Default_baseColor.jpg"
		},
		{
			"mimeType":"image/png",
			"name":"logo07___Default_metallicRoughness",
			"uri":"textures/logo07___Default_metallicRoughness.png"
		}
	],
	"accessors":[
		{
			"bufferView":0,
			"componentType":5126,
			"count":3963,
			"max":[
				-5.455508232116699,
				4.924657821655273,
				0.2362137883901596
			],
			"min":[
				-5.822040557861328,
				4.510561943054199,
				-1.8264139890670776
			],
			"type":"VEC3"
		},
		{
			"bufferView":1,
			"componentType":5126,
			"count":3963,
			"type":"VEC3"
		},
		{
			"bufferView":2,
			"componentType":5126,
			"count":3963,
			"type":"VEC2"
		},
		{
			"bufferView":3,
			"componentType":5123,
			"count":10449,
			"type":"SCALAR"
		},
		{
			"bufferView":4,
			"componentType":5126,
			"count":16824,
			"max":[
				8.553771018981934,
				8.373943328857422,
				1.6113147735595703
			],
			"min":[
				-5.798234939575195,
				0.3316669762134552,
				-3.8374273777008057
			],
			"type":"VEC3"
		},
		{
			"bufferView":5,
			"componentType":5126,
			"count":16824,
			"type":"VEC3"
		},
		{
			"bufferView":6,
			"componentType":5126,
			"count":16824,
			"type":"VEC2"
		},
		{
			"bufferView":7,
			"componentType":5123,
			"count":96204,
			"type":"SCALAR"
		}
	],
	"bufferViews":[
		{
			"buffer":0,
			"byteLength":47556,
			"byteOffset":0,
			"target":34962
		},
		{
			"buffer":0,
			"byteLength":47556,
			"byteOffset":47556,
			"target":34962
		},
		{
			"buffer":0,
			"byteLength":31704,
			"byteOffset":95112,
			"target":34962
		},
		{
			"buffer":0,
			"byteLength":20898,
			"byteOffset":126816,
			"target":34963
		},
		{
			"buffer":0,
			"byteLength":201888,
			"byteOffset":147716,
			"target":34962
		},
		{
			"buffer":0,
			"byteLength":201888,
			"byteOffset":349604,
			"target":34962
		},
		{
			"buffer":0,
			"byteLength":134592,
			"byteOffset":551492,
			"target":34962
		},
		{
			"buffer":0,
			"byteLength":192408,
			"byteOffset":686084,
			"target":34963
		}
	],
	"samplers":[
		{
			"magFilter":9729,
			"minFilter":9987
		}
	],
	"buffers":[
		{
			"byteLength":878492,
			"uri":"tubular_invader.bin"
		}
	]
}
